<?xml version="1.0" encoding="utf-8"?>
<!-- Generator: Adobe Illustrator 17.0.0, SVG Export Plug-In . SVG Version: 6.00 Build 0)  -->
<!DOCTYPE svg PUBLIC "-//W3C//DTD SVG 1.1//EN" "http://www.w3.org/Graphics/SVG/1.1/DTD/svg11.dtd">
<svg version="1.1" id="레이어_1" xmlns="http://www.w3.org/2000/svg" xmlns:xlink="http://www.w3.org/1999/xlink" x="0px"
	 y="0px" width="361.321px" height="67.496px" viewBox="0 0 361.321 67.496" enable-background="new 0 0 361.321 67.496"
	 xml:space="preserve">
<g id="웹">
	<g>
		<g>
			<path fill="#5ddbdb" d="M24.623,22.97c1.396,4.149,5.21,6.91,9.606,6.91c4.395,0,8.209-2.761,9.606-6.91H55.21v-4.145H40.429
				l-0.271,1.758c-0.458,2.985-2.952,5.152-5.929,5.152c-2.976,0-5.471-2.167-5.93-5.152l-0.271-1.758H12.301v14.248h8.922V48.67
				h26.059v-4.145H25.375V28.929h-8.922V22.97H24.623z"/>
			<path fill="#5ddbdb" d="M29.268,4.662l0.425-0.064v-4.27l-0.567,0.078C12.521,2.678,0,17.012,0,33.748
				c0,16.735,12.521,31.07,29.124,33.345l0.568,0.078v-4.272l-0.425-0.064C14.999,60.659,4.239,48.155,4.239,33.748
				S14.999,6.837,29.268,4.662z"/>
			<path fill="#5ddbdb" d="M58.13,10.541C52.136,4.283,44.139,0.583,35.609,0.12L33.376,0v11.439h4.239V4.555
				c6.59,0.872,12.768,4.022,17.45,8.911c4.753,4.959,7.626,11.381,8.124,18.137h-6.871v4.233h6.877
				c-0.487,6.776-3.362,13.219-8.13,18.195c-4.682,4.888-10.859,8.038-17.45,8.91v-6.195h-4.239v10.75l2.234-0.12
				c8.526-0.462,16.523-4.162,22.52-10.419c6.05-6.314,9.382-14.557,9.382-23.209C67.512,25.097,64.18,16.854,58.13,10.541z"/>
		</g>
	</g>
</g>
<g id="모바일">
	<g>
		<path fill="#5ddbdb" d="M97.551,26.748l-3.008,3.562c-1.344-1.635-3.329-2.656-5.14-2.656c-3.24,0-5.694,2.569-5.694,5.928
			c0,3.417,2.454,6.015,5.694,6.015c1.723,0,3.709-0.935,5.14-2.394l3.038,3.213c-2.191,2.248-5.432,3.738-8.441,3.738
			c-6.161,0-10.747-4.527-10.747-10.513c0-5.899,4.702-10.338,10.922-10.338C92.352,23.302,95.506,24.645,97.551,26.748z"/>
		<path fill="#5ddbdb" d="M117.468,39.568v4.352h-13.873V23.477h5.198v16.091H117.468z"/>
		<path fill="#5ddbdb" d="M128.798,27.566v4.059h9.753v4.089h-9.753v4.119h11.127v4.089H123.6V23.477h16.004v4.089H128.798z"/>
		<path fill="#5ddbdb" d="M151.578,40.152l-1.49,3.767h-5.344l8.82-20.442h5.344l8.614,20.442h-5.548l-1.461-3.767H151.578z
			 M156.075,28.646l-2.979,7.563h5.9L156.075,28.646z"/>
		<path fill="#5ddbdb" d="M187.353,43.919l-9.404-12.587v12.587h-4.877V23.477h4.585l9.432,12.617V23.477h4.847v20.442
			C191.937,43.919,187.353,43.919,187.353,43.919z"/>
		<path fill="#5ddbdb" d="M219.769,23.477c4.585,0,7.505,1.986,7.505,5.111c0,2.161-1.343,3.884-3.505,4.497
			c2.57,0.497,4.206,2.512,4.206,5.169c0,3.475-3.038,5.666-7.857,5.666h-10.016V23.477H219.769z M215.272,31.654h4.205
			c1.518,0,2.482-0.817,2.482-2.131c0-1.315-0.963-2.074-2.482-2.074h-4.205V31.654z M215.272,39.919h4.205
			c1.928,0,3.125-0.847,3.125-2.307c0-1.372-1.198-2.22-3.125-2.22h-4.205V39.919z"/>
		<path fill="#5ddbdb" d="M239.276,40.152l-1.49,3.767h-5.344l8.82-20.442h5.343l8.615,20.442h-5.548l-1.461-3.767H239.276z
			 M243.774,28.646l-2.979,7.563h5.9L243.774,28.646z"/>
		<path fill="#5ddbdb" d="M276.6,25.522l-1.956,4.06c-2.162-1.256-4.877-2.132-6.542-2.132c-1.344,0-2.248,0.497-2.248,1.49
			c0,3.533,10.805,1.518,10.805,8.907c0,4.089-3.621,6.25-8.177,6.25c-3.417,0-6.92-1.285-9.345-3.27l2.015-4.001
			c2.102,1.839,5.257,3.067,7.389,3.067c1.636,0,2.658-0.614,2.658-1.782c0-3.621-10.805-1.461-10.805-8.703
			c0-3.767,3.242-6.161,8.147-6.161C271.489,23.244,274.496,24.149,276.6,25.522z"/>
		<path fill="#5ddbdb" d="M291.055,35.889l-2.715,3.008v5.023h-5.198V23.477h5.198v8.849l7.827-8.849h6.015l-7.592,8.469
			l8.09,11.973h-6.221L291.055,35.889z"/>
		<path fill="#5ddbdb" d="M313.805,27.566v4.059h9.753v4.089h-9.753v4.119h11.127v4.089h-16.325V23.477h16.004v4.089H313.805z"/>
		<path fill="#5ddbdb" d="M341.403,27.654V43.92h-5.198V27.654h-6.104v-4.206h17.463v4.206H341.403z"/>
	</g>
</g>
</svg>
